<svg width="133" height="150" viewBox="0 0 133 150" fill="none" xmlns="http://www.w3.org/2000/svg">
<path d="M108.519 1.27471C115.639 3.69427 121.027 8.05758 124.453 14.7299C124.905 15.6099 125.312 16.0122 126.443 15.9985C129.364 15.9631 132.093 18.3412 132.776 21.2072C133.553 24.4692 132.268 27.6957 129.585 29.2161C129.487 29.2717 129.39 29.3546 129.285 29.3694C126.857 29.7121 126.791 31.5176 126.694 33.4132C126.289 41.3513 125.312 49.2181 123.871 57.039C122.645 63.6914 121.059 70.2314 118.347 76.4338C113.838 86.7487 107.342 95.5193 98.0534 102.023C96.6718 102.99 95.1742 103.794 93.7079 104.635C92.3697 105.402 92.3004 105.454 93.0365 106.769C95.6679 111.473 99.0658 115.478 103.585 118.483C107.903 121.354 112.588 122.916 117.8 122.685C119.868 122.594 121.887 122.191 123.873 121.606C124.807 121.331 125.754 121.07 126.748 121.322C128.109 121.667 129.027 122.493 129.329 123.872C129.707 125.605 129.172 127.088 127.843 128.241C125.755 130.052 123.456 131.555 120.897 132.595C110.139 136.971 100.033 135.612 90.6096 128.936C83.2315 123.708 78.6746 116.451 75.9738 107.925C75.6587 106.93 75.1621 106.367 74.1642 106.017C70.9021 104.875 67.8825 103.149 64.6342 101.954C60.8502 100.561 57.0102 100.047 53.0302 100.84C52.541 100.938 52.0536 100.952 51.6625 100.549C48.0891 96.8647 45.415 92.6402 44.2991 87.5768C43.8704 85.6314 44.8445 84.0438 46.4841 83.313C48.1402 82.5749 50.0529 83.0003 51.3248 84.3611C53.0697 86.2278 53.9419 88.5469 54.7218 91.0399C55.3027 90.5001 55.3696 89.7917 55.7099 89.2431C57.3789 86.5529 59.9397 85.1444 62.8117 84.1777C66.144 83.0561 69.5574 82.8028 73.0323 83.2805C73.177 83.3004 73.3267 83.2831 73.5137 83.2831C72.0539 82.0569 67.7415 81.5122 64.1049 82.219C60.8148 82.8585 57.8697 84.0989 55.414 86.6469C54.551 85.3842 53.7918 84.1888 52.8679 83.1197C52.6627 82.8823 52.7464 82.5526 53.0132 82.444C53.9033 82.0817 53.676 81.4319 53.5444 80.7507C52.0612 73.0687 50.8971 65.3269 49.2612 57.6735C49.1143 56.9866 48.9208 56.3098 48.7447 55.6119C47.7513 55.8516 47.5561 56.3121 47.9292 57.1889C49.3763 60.5892 50.1643 64.1515 50.0268 67.8511C49.8276 73.2113 48.4418 78.1654 44.8276 82.3267C43.419 83.9486 42.0174 85.5676 40.4237 87.007C40.1466 87.2573 39.9361 87.4415 40.1205 87.8487C41.5941 91.1022 43.0578 94.3603 44.5063 97.5767C44.6554 97.6057 44.7559 97.6576 44.7945 97.628C45.9053 96.7779 46.555 97.2688 47.1258 98.3391C47.8341 99.667 48.7841 100.838 49.8839 102.041C47.8386 103.388 45.8684 104.657 44.0704 106.208C44.5465 106.895 45.2122 107.167 45.8136 107.529C46.1321 107.72 46.363 107.639 46.6004 107.381C51.2477 102.318 56.9686 102.218 63.0081 103.909C66.4886 104.884 69.6665 106.661 72.9991 108.032C73.8747 108.392 73.9433 109.375 74.2659 110.498C73.0134 109.889 71.9943 109.386 70.9696 108.896C68.5284 107.727 68.5299 107.729 68.5301 110.431C68.5303 113.335 68.5449 116.239 68.5091 119.143C68.4998 119.895 68.6846 120.493 69.1175 121.123C71.188 124.133 70.3957 127.372 67.3056 128.761C64.6589 129.951 61.848 128.682 60.8268 125.743C60.5455 124.934 60.1048 124.385 59.4334 123.925C56.242 121.739 53.0613 119.537 49.7026 117.22C47.6918 121.992 47.7162 126.684 49.8195 131.247C52.5781 137.232 57.352 140.641 63.92 141.212C68.6952 141.626 73.1265 140.459 76.8092 137.246C80.4075 134.107 82.2788 129.992 82.7976 125.323C83.2516 125.292 83.4291 125.439 83.5709 125.614C85.1453 127.561 87.042 129.162 89.0146 130.673C89.5729 131.1 89.5919 131.498 89.3719 132.122C87.6101 137.123 84.7516 141.318 80.493 144.509C80.1343 144.778 79.7951 145.073 79.2043 145.552C80.0157 145.552 80.5842 145.552 81.1527 145.552C91.5561 145.549 101.96 145.55 112.363 145.538C113.423 145.536 114.393 145.659 114.995 146.687C115.845 148.139 115.083 149.738 113.414 149.967C113.081 150.013 112.739 149.993 112.401 149.993C83.4446 149.996 54.4878 149.999 25.5311 150C23.8811 150 23.0507 149.423 22.8837 148.171C22.6797 146.642 23.32 145.787 24.8421 145.596C25.2498 145.545 25.6668 145.559 26.0796 145.559C34.0418 145.555 42.0039 145.554 49.9661 145.553C50.4026 145.552 50.839 145.552 51.3508 145.416C46.3982 141.476 42.8516 136.623 41.3185 130.498C39.8022 124.44 40.1822 118.473 42.9149 112.645C41.6433 111.912 40.4337 111.173 39.1867 110.505C36.0652 108.832 34.6447 105.89 35.5357 102.82C35.9677 101.331 36.9383 100.238 38.2403 99.4768C39.0098 99.0272 39.169 98.6021 38.776 97.768C37.6364 95.3494 36.5852 92.8888 35.4956 90.4464C35.451 90.3462 35.369 90.2628 35.2395 90.0799C34.1013 90.4436 32.9446 90.8426 31.7712 91.1835C20.9428 94.3297 10.4947 90.4788 4.4742 80.9184C-1.22966 71.861 -1.51405 62.3718 3.81715 53.2008C8.74103 44.7304 16.625 40.8687 26.3793 41.539C33.2557 42.0116 39.0354 45.0889 43.5596 50.3686C44.2141 51.1325 44.6701 51.2582 45.4632 50.6002C47.1964 49.1622 49.2565 48.1639 50.9855 46.5687C50.5467 45.9793 49.876 45.7935 49.3358 45.4365C47.2008 44.0253 45.526 42.2533 44.9106 39.6793C43.8455 35.2251 47.0976 31.0588 51.6535 31.0327C54.2448 31.0179 56.8364 31.0284 59.4278 31.0441C61.2561 31.0552 62.4504 32.0977 62.4738 33.6679C62.4956 35.1298 61.1847 36.3526 59.4449 36.3852C57.0796 36.4294 54.7129 36.4048 52.3468 36.404C51.5275 36.4038 50.782 36.5103 50.3217 37.3331C49.8294 38.2131 50.3229 38.8754 50.7938 39.4942C52.0073 41.089 53.7483 41.9307 55.576 42.5299C56.6251 42.8737 56.8618 43.2505 56.3502 44.2658C55.6241 45.707 55.7681 47.2175 56.5114 48.6134C56.9489 49.4352 56.9846 50.0386 56.0541 50.4125C53.7993 51.3187 53.7282 52.9058 54.1661 55.07C55.5591 61.955 56.7262 68.886 57.9871 75.7979C58.0668 76.2345 58.2027 76.6607 58.3247 77.1398C58.9598 77.1564 59.3043 76.7092 59.6883 76.3977C63.7302 73.1196 67.3801 69.4391 70.8313 65.5435C71.6278 64.6444 72.0139 63.9303 71.6615 62.6407C71.2153 61.0079 72.1283 59.6485 73.3577 58.5855C76.3561 55.993 79.9944 54.7277 83.7641 54.0017C88.9481 53.0033 94.147 53.1524 99.2148 54.8565C100.451 55.2722 101.651 55.7973 102.913 56.2899C103.946 54.4635 104.386 52.4808 104.903 50.5257C104.941 50.3814 104.944 50.2272 104.958 50.0772C105.099 48.6004 105.705 47.8488 107.343 47.4555C113.662 45.9385 118.198 42.0527 121.15 36.2535C121.58 35.4091 121.577 34.7685 120.99 33.9967C119.989 32.6813 119.17 31.219 117.776 30.2483C117.186 29.8371 117.463 29.3069 117.573 28.8146C118.151 26.2182 118.498 23.6371 117.618 21.0188C116.266 16.9954 111.906 14.8767 108.222 16.5184C106.858 17.1262 105.909 18.1701 105.294 19.5196C104.984 20.1994 104.72 20.9001 104.32 21.8708C101.749 19.63 98.8307 19.0924 95.7002 19.9535C95.2754 19.217 95.4401 18.5108 95.3402 17.8586C94.9478 15.2945 93.5666 13.5319 91.1565 12.7238C88.5462 11.8485 86.1708 12.4825 84.1968 14.3935C82.307 16.223 81.3284 18.5045 81.1613 21.1362C81.1327 21.5874 81.0685 22.0372 81.0593 22.4885C81.0437 23.2579 80.7264 23.7177 79.9453 23.934C78.9292 24.2153 78.5093 24.9236 78.4186 26.0247C78.0907 30.0108 79.2741 33.5401 81.4523 36.7898C82.1386 37.8137 82.7167 38.921 83.8073 39.838C82.4388 40.2699 82.6506 41.2642 82.7928 42.1545C83.2846 45.2347 83.1192 48.3011 82.793 51.3816C82.7076 52.187 82.3768 52.4806 81.6634 52.6358C78.5167 53.3203 75.5243 54.3689 72.997 56.5845C72.2782 55.6089 71.6099 54.6759 70.9144 53.7638C69.7262 52.2053 68.2272 51.0333 66.4374 50.2472C65.3842 49.7846 64.3033 49.6173 63.1444 49.8518C60.8709 50.3119 59.2286 49.4544 58.3783 47.443C57.6221 45.6544 58.3439 43.3134 60.0353 42.149C61.6044 41.0687 63.4193 40.7219 65.2556 40.5618C69.7932 40.1663 73.9474 41.376 77.8051 43.7367C78.1172 43.9277 78.3993 44.205 79.0183 44.201C78.7634 42.3601 79.159 40.4613 78.2934 38.7316C77.0463 36.2395 75.7181 33.8004 75.1558 31.0187C74.5471 28.0068 74.6391 25.0292 75.3482 22.0619C75.5239 21.3266 75.4064 20.8856 74.7665 20.3592C72.3605 18.3806 71.3057 15.8017 72.1005 12.7173C72.7981 10.01 74.497 8.14048 77.2924 7.45527C78.5944 7.13611 79.9089 7.1565 81.1804 7.5913C81.8055 7.80509 82.2127 7.65619 82.6784 7.21245C90.0921 0.147665 98.7623 -1.49594 108.519 1.27471ZM9.71536 58.8867C8.22974 62.0266 7.758 65.3152 8.13217 68.7704C8.72936 74.2851 11.2796 78.6132 15.8894 81.6322C20.368 84.5654 25.2269 85.0751 30.3237 83.5298C31.0567 83.3076 31.4354 82.9813 30.989 82.1547C29.2907 79.0093 27.6217 75.8479 25.9355 72.6959C25.7187 72.2906 25.4609 72.032 24.9015 71.9989C22.688 71.8682 21.1844 70.6705 20.441 68.6039C19.7829 66.7748 20.1807 65.0542 21.5245 63.695C23.0118 62.1905 24.866 61.9224 26.8321 62.6462C27.3119 62.8227 27.6382 62.7845 28.0584 62.4924C30.9882 60.456 33.9304 58.437 36.8903 56.445C37.6028 55.9655 37.6624 55.567 37.0696 54.9356C33.6806 51.3262 29.4336 49.5343 24.592 49.6113C17.9657 49.7167 12.8617 52.6492 9.71536 58.8867ZM66.5501 78.7918C71.7184 78.329 76.427 79.6658 80.69 82.5356C81.0859 82.2864 81.2997 81.9903 81.6456 81.8261C86.7668 79.3963 90.7526 75.674 93.8955 70.9776C94.4009 70.2224 94.3239 69.7366 93.6864 69.1448C91.8271 67.419 89.6604 66.2768 87.2474 65.5713C84.0336 64.6316 80.8336 64.8264 77.5699 65.4276C75.8798 65.739 74.7785 66.4938 73.7607 67.8207C71.5865 70.6551 69.2362 73.3479 66.4918 75.6646C65.1866 76.7665 63.9271 77.923 62.6469 79.0548C62.6751 79.12 62.7033 79.1852 62.7314 79.2503C63.9348 79.0983 65.1382 78.9462 66.5501 78.7918ZM39.3394 76.8749C42.9482 71.5526 42.9407 64.2817 40.755 60.8978C40.4053 61.0997 40.0402 61.2857 39.7006 61.5104C36.7244 63.4792 33.7681 65.4789 30.7691 67.4119C30.0158 67.8974 29.993 68.3327 30.3743 69.0628C32.1345 72.4328 33.8479 75.8274 35.5927 79.2056C35.792 79.5915 35.9187 80.0499 36.4147 80.3258C37.5244 79.3658 38.4827 78.2742 39.3394 76.8749ZM54.6821 113.873C57.4054 115.691 59.972 117.748 62.8394 119.455C62.937 119.192 63.0069 119.092 63.007 118.992C63.0099 115.344 62.9997 111.696 63.0093 108.048C63.0111 107.358 62.6359 107.183 62.0724 107.292C61.1561 107.47 60.2299 107.636 59.3427 107.918C56.7063 108.755 54.6164 110.377 52.8557 112.476C53.3593 113.143 54.0176 113.377 54.6821 113.873ZM109.875 75.5136C112.018 72.0428 113.208 68.1984 114.23 64.2894C114.467 63.3833 113.915 62.5974 113.174 62.782C112.513 62.947 112.407 63.5551 112.262 64.0958C110.947 69.0054 109.191 73.7124 106.077 77.8025C105.626 78.3943 105.725 78.9113 106.278 79.3774C106.932 79.9292 107.358 79.4349 107.667 78.9867C108.415 77.9044 109.088 76.7695 109.875 75.5136ZM126.201 24.8299C126.239 25.1906 126.097 25.5857 126.442 25.9474C127.058 25.9071 127.508 25.4881 127.932 25.0912C128.66 24.4091 129.039 23.5512 128.761 22.5456C128.511 21.6407 127.838 21.0958 126.961 20.8398C126.021 20.5654 125.684 20.883 125.871 21.8425C126.051 22.7655 126.2 23.69 126.201 24.8299ZM76.6775 12.5389C75.7694 14.211 75.8956 15.3927 77.184 16.6317C77.7841 15.0353 78.6136 13.5887 79.4788 12.1032C78.3865 11.5407 77.5466 11.675 76.6775 12.5389Z" fill="url(#paint0_linear_165_34)"/>
<path d="M100.63 43.5333C95.4454 45.9358 91.0159 42.7774 90.6377 37.1966C90.4719 34.7495 89.8141 33.0737 88.0094 31.611C87.5033 31.2008 87.2033 31.0829 86.6759 31.4156C86.0731 31.7959 85.4367 32.1223 84.8194 32.4799C84.1876 32.8459 83.6394 32.711 83.2492 32.1352C82.8719 31.5786 83.0514 31.0031 83.5244 30.6198C85.0878 29.3528 86.9259 28.5592 88.7413 27.7498C89.247 27.5243 89.7699 27.8629 90.1339 28.2781C90.4625 28.6531 90.5421 29.1258 90.2441 29.5311C89.8009 30.1341 90.0923 30.4629 90.5625 30.8273C92.0493 31.9797 93.9965 32.1034 95.4946 31.1123C96.6618 30.34 96.6491 29.5456 95.4592 28.9078C93.6048 27.9138 92.6561 25.8737 93.2173 24.1012C93.5174 23.1535 94.0722 22.4428 95.0038 22.0435C97.3749 21.0273 99.7282 20.8361 102.011 22.2561C103.422 23.1337 104.474 24.2982 104.253 26.1146C104.054 27.7462 102.448 29.2414 100.654 29.5809C100.215 29.664 99.7563 29.6554 99.3826 29.9448C99.6377 32.6114 103.065 34.0667 105.862 32.659C105.795 32.4602 105.711 32.2575 105.66 32.0465C105.51 31.4261 105.731 30.9045 106.218 30.5546C106.693 30.2144 107.261 30.2753 107.691 30.632C109.221 31.9022 110.84 33.0838 112.039 34.7094C112.452 35.2694 112.644 35.848 112.032 36.419C111.386 37.0211 110.626 36.8957 110.278 36.2709C108.976 33.9353 107.339 34.5761 105.563 35.5279C105.058 35.7984 104.924 36.1425 104.817 36.6637C104.255 39.4206 103.307 41.9652 100.63 43.5333ZM100.652 39.5539C100.702 38.8134 100.249 38.4337 99.6323 38.2609C98.1365 37.8413 97.8197 39.1729 97.2622 40.1214C96.8733 39.7547 96.846 39.4107 96.838 39.0778C96.8247 38.5212 96.6116 38.1279 96.0434 38.0086C95.3606 37.8652 94.7803 38.0888 94.3157 38.5893C93.9236 39.0119 94.0049 39.4583 94.271 39.9354C94.9482 41.1492 95.9564 41.9263 97.3398 41.8645C98.7878 41.7999 100.028 41.2021 100.652 39.5539ZM98.0839 33.4414C97.7595 32.8933 97.4019 32.713 96.8498 33.2129C96.3037 33.7074 95.589 33.9424 94.6559 34.3388C96.5679 34.761 98.2189 34.9633 100.217 35.1334C99.3409 34.4809 98.6765 34.1275 98.0839 33.4414Z" fill="url(#paint1_linear_165_34)"/>
<path d="M106.296 24.3542C105.838 24.0091 105.826 23.6305 105.918 23.1896C106.401 20.8541 108.469 19.2263 110.789 19.375C113.181 19.5282 115.116 21.5351 115.199 23.9699C115.218 24.5299 115.259 25.0971 115.056 25.644C114.845 26.2135 114.529 26.6886 113.854 26.6136C113.241 26.5455 112.676 26.3263 112.561 25.5823C112.492 25.1375 112.401 24.6958 112.346 24.2494C112.224 23.2421 111.525 22.7304 110.681 22.4676C109.909 22.2275 109.33 22.7356 108.844 23.2863C108.647 23.5098 108.497 23.7756 108.329 24.0249C107.802 24.8103 107.174 25.0726 106.296 24.3542Z" fill="url(#paint2_linear_165_34)"/>
<path d="M84.3386 18.8323C85.5473 16.3024 87.472 15.3339 89.9522 15.9438C91.9454 16.434 93.5992 18.5536 93.5775 20.5899C93.5681 21.4627 92.9053 22.1531 91.9561 22.2431C91.1477 22.3197 91.1406 21.6218 90.9419 21.1265C90.8302 20.848 90.7795 20.544 90.6598 20.2697C90.3003 19.4457 89.6277 18.9009 88.7826 18.8231C87.9356 18.7452 87.3022 19.3267 86.9321 20.0734C86.4754 20.9948 86.1261 22.1465 84.7764 21.5637C83.4396 20.9866 84.0911 19.8696 84.3386 18.8323Z" fill="url(#paint3_linear_165_34)"/>
<path d="M83.9042 25.0462C85.034 24.7186 86.0902 24.4934 87.1714 24.3737C87.6702 24.3185 88.1617 24.3153 88.5924 24.5563C89.0542 24.8148 89.4933 25.1834 89.4178 25.7867C89.3474 26.3493 88.8754 26.5822 88.3755 26.6637C86.4151 26.9835 84.5104 27.5203 82.6194 28.1133C81.8193 28.3641 81.2784 28.0314 81.0231 27.3056C80.7677 26.5793 81.1434 26.0589 81.8105 25.7855C82.4665 25.5167 83.1476 25.3097 83.9042 25.0462Z" fill="url(#paint4_linear_165_34)"/>
<path d="M113.785 32.7771C112.16 31.6089 110.525 30.6338 108.75 29.9048C107.997 29.5955 107.563 29.0828 107.855 28.2356C108.149 27.3806 108.855 27.4093 109.529 27.6263C111.546 28.2755 113.364 29.2945 114.925 30.7448C115.405 31.1907 115.626 31.773 115.303 32.3725C115.003 32.9296 114.478 33.1076 113.785 32.7771Z" fill="url(#paint5_linear_165_34)"/>
<defs>
<linearGradient id="paint0_linear_165_34" x1="66.5" y1="0" x2="66.5" y2="150.162" gradientUnits="userSpaceOnUse">
<stop stop-color="#27509B"/>
<stop offset="1" stop-color="#AEC5E5"/>
</linearGradient>
<linearGradient id="paint1_linear_165_34" x1="66.5" y1="0" x2="66.5" y2="150.162" gradientUnits="userSpaceOnUse">
<stop stop-color="#27509B"/>
<stop offset="1" stop-color="#AEC5E5"/>
</linearGradient>
<linearGradient id="paint2_linear_165_34" x1="66.5" y1="0" x2="66.5" y2="150.162" gradientUnits="userSpaceOnUse">
<stop stop-color="#27509B"/>
<stop offset="1" stop-color="#AEC5E5"/>
</linearGradient>
<linearGradient id="paint3_linear_165_34" x1="66.5" y1="0" x2="66.5" y2="150.162" gradientUnits="userSpaceOnUse">
<stop stop-color="#27509B"/>
<stop offset="1" stop-color="#AEC5E5"/>
</linearGradient>
<linearGradient id="paint4_linear_165_34" x1="66.5" y1="0" x2="66.5" y2="150.162" gradientUnits="userSpaceOnUse">
<stop stop-color="#27509B"/>
<stop offset="1" stop-color="#AEC5E5"/>
</linearGradient>
<linearGradient id="paint5_linear_165_34" x1="66.5" y1="0" x2="66.5" y2="150.162" gradientUnits="userSpaceOnUse">
<stop stop-color="#27509B"/>
<stop offset="1" stop-color="#AEC5E5"/>
</linearGradient>
</defs>
</svg>
